<svg width="9" height="9" viewBox="0 0 9 9" fill="none" xmlns="http://www.w3.org/2000/svg">
<path d="M6.95987 3.10488L6.94261 5.31534C6.95853 5.66341 7.25117 5.93584 7.58273 5.92802L7.58302 5.92802C7.9365 5.92009 8.20601 5.63877 8.19877 5.28528L8.19875 5.28528L8.19872 5.28215L8.1644 0.95101C8.15671 0.614991 7.86832 0.339593 7.53326 0.347495L7.53326 0.347554L7.52784 0.347564L3.05114 0.356147C2.69883 0.365268 2.43054 0.646123 2.43776 0.998822C2.44466 1.33549 2.73339 1.61169 3.06894 1.60378L3.06893 1.60358L3.07891 1.60374L5.45034 1.64241L6.023 1.65174L5.62679 2.06532L0.604627 7.30762C0.361114 7.56181 0.367429 7.95687 0.613554 8.19266C0.863023 8.43165 1.26692 8.42309 1.50719 8.17229L6.52935 2.92998L6.96479 2.47546L6.95987 3.10488Z" fill="#CAA276" stroke="#161C23" stroke-width="0.5"/>
</svg>
