<svg width="10" height="9" viewBox="0 0 10 9" fill="none" xmlns="http://www.w3.org/2000/svg">
<path d="M2.45682 5.41173L2.52147 3.20215C2.51302 2.85381 2.22629 2.57517 1.89464 2.57588L1.89434 2.57588C1.54078 2.57622 1.2653 2.8517 1.26496 3.20526L1.26498 3.20526L1.26494 3.2084L1.20638 7.53928C1.20687 7.87538 1.48928 8.1569 1.82444 8.15619L1.82444 8.15613L1.82986 8.15623L6.30571 8.24364C6.65814 8.24208 6.93239 7.96704 6.93273 7.61427C6.93306 7.27752 6.65031 6.9952 6.31467 6.99591L6.31467 6.99611L6.3047 6.99574L3.93465 6.90623L3.36232 6.88462L3.76731 6.47963L8.90072 1.34622C9.14963 1.09731 9.15178 0.702209 8.91077 0.461196C8.66648 0.216908 8.26249 0.216808 8.0169 0.462403L2.88349 5.59582L2.43841 6.0409L2.45682 5.41173Z" fill="#8484F1" stroke="#161C23" stroke-width="0.5"/>
</svg>
